<svg width="512" height="512" viewBox="0 0 120 100" xmlns="http://www.w3.org/2000/svg">
  <rect width="120" height="100" rx="18" fill="#0f172a"/>
  <g fill="#1e293b">
    <rect x="15" y="15" width="10" height="70" rx="4"/>
    <rect x="35" y="15" width="10" height="70" rx="4"/>
    <rect x="55" y="15" width="10" height="70" rx="4"/>
    <rect x="75" y="15" width="10" height="70" rx="4"/>
    <rect x="95" y="15" width="10" height="70" rx="4"/>
  </g>
  <g fill="#64748b">
    <rect x="17" y="40" width="6" height="8" rx="2"/>
    <rect x="37" y="55" width="6" height="8" rx="2"/>
    <rect x="77" y="50" width="6" height="8" rx="2"/>
    <rect x="97" y="35" width="6" height="8" rx="2"/>
  </g>
  <rect x="55" y="25" width="10" height="50" rx="5" fill="#3b82f6"/>
  <ellipse cx="60" cy="55" rx="6" ry="10" fill="#e2e8f0"/>
  <circle cx="60" cy="40" r="7" fill="#3b82f6"/>
  <circle cx="57.5" cy="38.5" r="1.2" fill="#020617"/>
  <circle cx="62.5" cy="38.5" r="1.2" fill="#020617"/>
  <polygon points="60,41 58.5,43 61.5,43" fill="#fbbf24"/>
  <ellipse cx="52" cy="55" rx="2" ry="6" fill="#3b82f6" opacity="0.7"/>
  <ellipse cx="68" cy="55" rx="2" ry="6" fill="#3b82f6" opacity="0.7"/>
  <g fill="#93c5fd">
    <rect x="10" y="88" width="8" height="2"/>
    <rect x="22" y="88" width="8" height="2"/>
    <rect x="34" y="88" width="8" height="2"/>
    <rect x="46" y="88" width="8" height="2"/>
    <rect x="58" y="88" width="8" height="2"/>
    <rect x="70" y="88" width="8" height="2"/>
    <rect x="82" y="88" width="8" height="2"/>
    <rect x="94" y="88" width="8" height="2"/>
  </g>
</svg>
